<mxfile host="drawio-plugin" modified="2024-01-22T17:18:03.688Z" agent="5.0 (X11; Linux x86_64) AppleWebKit/537.36 (KHTML, like Gecko) Chrome/111.0.0.0 Safari/537.36" version="20.5.3" etag="IP1CXLrPI9BBVWCmDdg7" type="embed"><diagram id="NtQ5_XNEAZifYP1_NEY8" name="Page-1"><mxGraphModel dx="938" dy="426" grid="1" gridSize="10" guides="1" tooltips="1" connect="1" arrows="1" fold="1" page="1" pageScale="1" pageWidth="850" pageHeight="1100" math="0" shadow="0"><root><mxCell id="0"/><mxCell id="1" parent="0"/><mxCell id="2" value="Listar todas as Contas" style="ellipse;whiteSpace=wrap;html=1;fillColor=#6a00ff;fontColor=#ffffff;strokeColor=#3700CC;" vertex="1" parent="1"><mxGeometry x="210" y="140" width="130" height="60" as="geometry"/></mxCell><mxCell id="3" value="Criar Conta" style="ellipse;whiteSpace=wrap;html=1;fillColor=#1ba1e2;fontColor=#ffffff;strokeColor=#006EAF;" vertex="1" parent="1"><mxGeometry x="220" y="230" width="120" height="60" as="geometry"/></mxCell><mxCell id="4" value="" style="endArrow=classic;html=1;rounded=0;entryX=0.015;entryY=0.633;entryDx=0;entryDy=0;entryPerimeter=0;flowAnimation=1;" edge="1" parent="1" target="2"><mxGeometry width="50" height="50" relative="1" as="geometry"><mxPoint x="80" y="210" as="sourcePoint"/><mxPoint x="130" y="160" as="targetPoint"/></mxGeometry></mxCell><mxCell id="5" value="" style="endArrow=classic;html=1;rounded=0;entryX=0;entryY=0.5;entryDx=0;entryDy=0;flowAnimation=1;" edge="1" parent="1" target="3"><mxGeometry width="50" height="50" relative="1" as="geometry"><mxPoint x="80" y="214.8387096774194" as="sourcePoint"/><mxPoint x="370" y="190" as="targetPoint"/></mxGeometry></mxCell><mxCell id="6" value="Filtrar por Nome" style="ellipse;whiteSpace=wrap;html=1;fillColor=#008a00;fontColor=#ffffff;strokeColor=#005700;" vertex="1" parent="1"><mxGeometry x="500" y="140" width="120" height="60" as="geometry"/></mxCell><mxCell id="7" value="&amp;lt;&amp;lt;extend&amp;gt;&amp;gt;" style="html=1;verticalAlign=bottom;labelBackgroundColor=none;endArrow=open;endFill=0;dashed=1;rounded=0;flowAnimation=1;" edge="1" parent="1"><mxGeometry width="160" relative="1" as="geometry"><mxPoint x="340" y="169.5" as="sourcePoint"/><mxPoint x="500" y="169.5" as="targetPoint"/></mxGeometry></mxCell><mxCell id="9" value="Validar Id do Cliente" style="ellipse;whiteSpace=wrap;html=1;fillColor=#d80073;fontColor=#ffffff;strokeColor=#A50040;" vertex="1" parent="1"><mxGeometry x="500" y="230" width="130" height="60" as="geometry"/></mxCell><mxCell id="10" value="&amp;lt;&amp;lt;include&amp;gt;&amp;gt;" style="html=1;verticalAlign=bottom;labelBackgroundColor=none;endArrow=open;endFill=0;dashed=1;rounded=0;flowAnimation=1;" edge="1" parent="1"><mxGeometry width="160" relative="1" as="geometry"><mxPoint x="340" y="259.5" as="sourcePoint"/><mxPoint x="500" y="259.5" as="targetPoint"/></mxGeometry></mxCell><mxCell id="12" value="ActorName" style="shape=umlActor;html=1;verticalLabelPosition=bottom;verticalAlign=top;align=center;" vertex="1" parent="1"><mxGeometry x="50" y="180" width="30" height="60" as="geometry"/></mxCell><mxCell id="13" value="Deletar uma Conta" style="ellipse;whiteSpace=wrap;html=1;fillColor=#0050ef;fontColor=#ffffff;strokeColor=#001DBC;" vertex="1" parent="1"><mxGeometry x="222.5" y="320" width="115" height="60" as="geometry"/></mxCell><mxCell id="14" value="" style="endArrow=classic;html=1;rounded=0;entryX=0;entryY=0.333;entryDx=0;entryDy=0;entryPerimeter=0;flowAnimation=1;" edge="1" parent="1" target="13"><mxGeometry width="50" height="50" relative="1" as="geometry"><mxPoint x="70" y="230" as="sourcePoint"/><mxPoint x="110" y="170" as="targetPoint"/></mxGeometry></mxCell><mxCell id="15" value="Atualizar Conta" style="ellipse;whiteSpace=wrap;html=1;fillColor=#d80073;fontColor=#ffffff;strokeColor=#A50040;" vertex="1" parent="1"><mxGeometry x="210" y="60" width="120" height="60" as="geometry"/></mxCell><mxCell id="16" value="" style="endArrow=classic;html=1;rounded=0;exitX=1;exitY=0.3333333333333333;exitDx=0;exitDy=0;exitPerimeter=0;flowAnimation=1;" edge="1" parent="1" source="12" target="15"><mxGeometry width="50" height="50" relative="1" as="geometry"><mxPoint x="70" y="210" as="sourcePoint"/><mxPoint x="120" y="160" as="targetPoint"/></mxGeometry></mxCell></root></mxGraphModel></diagram></mxfile>